<svg width="24" height="24" viewBox="0 0 24 24" fill="none" xmlns="http://www.w3.org/2000/svg">
<path d="M18.1461 10.2007L11.3752 3.0935C11.2114 2.92752 11.0809 2.72898 10.991 2.50946C10.9012 2.28994 10.8539 2.05383 10.8519 1.81493C10.8499 1.57602 10.8933 1.33909 10.9795 1.11796C11.0657 0.896835 11.193 0.695939 11.3539 0.526999C11.5149 0.358059 11.7062 0.224455 11.9169 0.133985C12.1276 0.0435145 12.3533 -0.00200882 12.5809 6.7234e-05C12.8085 0.00214329 13.0334 0.051779 13.2426 0.146078C13.4517 0.240377 13.6409 0.37745 13.799 0.549301L23.496 10.7279C23.6557 10.8946 23.7825 11.0928 23.869 11.3111C23.9555 11.5294 24 11.7636 24 12C24 12.2364 23.9555 12.4706 23.869 12.6889C23.7825 12.9072 23.6557 13.1054 23.496 13.2721L13.799 23.4507C13.6409 23.6225 13.4517 23.7596 13.2426 23.8539C13.0334 23.9482 12.8085 23.9979 12.5809 23.9999C12.3533 24.002 12.1276 23.9565 11.9169 23.866C11.7062 23.7755 11.5149 23.6419 11.3539 23.473C11.193 23.3041 11.0657 23.1032 10.9795 22.882C10.8933 22.6609 10.8499 22.424 10.8519 22.1851C10.8539 21.9462 10.9012 21.7101 10.991 21.4905C11.0809 21.271 11.2114 21.0725 11.3752 20.9065L18.1461 13.7993L1.71416 13.7993C1.25954 13.7993 0.823533 13.6097 0.502066 13.2723C0.180598 12.9349 0 12.4772 0 12C0 11.5228 0.180598 11.0651 0.502066 10.7277C0.823533 10.3903 1.25954 10.2007 1.71416 10.2007L18.1461 10.2007Z" fill="#F59D27"/>
</svg>
