<svg width="30" height="30" viewBox="0 0 30 30" fill="none" xmlns="http://www.w3.org/2000/svg">
<path d="M23.0462 26.1714H6.95374C6.12493 26.1714 5.33008 25.8421 4.74403 25.2561C4.15798 24.67 3.82874 23.8752 3.82874 23.0464V6.95386C3.82874 6.12506 4.15798 5.3302 4.74403 4.74415C5.33008 4.1581 6.12493 3.82886 6.95374 3.82886H23.0462C23.875 3.82886 24.6699 4.1581 25.2559 4.74415C25.842 5.3302 26.1712 6.12506 26.1712 6.95386V23.0464C26.1712 23.8752 25.842 24.67 25.2559 25.2561C24.6699 25.8421 23.875 26.1714 23.0462 26.1714ZM6.95374 5.07886C6.45645 5.07886 5.97954 5.2764 5.62791 5.62803C5.27628 5.97966 5.07874 6.45658 5.07874 6.95386V23.0464C5.07874 23.5436 5.27628 24.0206 5.62791 24.3722C5.97954 24.7238 6.45645 24.9214 6.95374 24.9214H23.0462C23.5435 24.9214 24.0204 24.7238 24.3721 24.3722C24.7237 24.0206 24.9212 23.5436 24.9212 23.0464V6.95386C24.9212 6.45658 24.7237 5.97966 24.3721 5.62803C24.0204 5.2764 23.5435 5.07886 23.0462 5.07886H6.95374Z" fill="currentColor"/>
<path d="M15 20.7424C13.8642 20.7411 12.7543 20.4032 11.8105 19.7713C10.8668 19.1393 10.1316 18.2418 9.69782 17.1921C9.26408 16.1423 9.1513 14.9876 9.37373 13.8738C9.59616 12.76 10.1438 11.7371 10.9475 10.9345C11.7511 10.1319 12.7747 9.58562 13.8888 9.36464C15.0029 9.14366 16.1575 9.25795 17.2066 9.69306C18.2558 10.1282 19.1524 10.8646 19.7831 11.8091C20.4138 12.7537 20.7503 13.8641 20.75 14.9999C20.748 16.5236 20.1413 17.9842 19.0632 19.0609C17.9851 20.1376 16.5237 20.7424 15 20.7424ZM15 10.4999C14.1118 10.5011 13.2438 10.7656 12.5058 11.2598C11.7677 11.7541 11.1927 12.456 10.8534 13.2768C10.514 14.0977 10.4256 15.0007 10.5992 15.8718C10.7728 16.743 11.2006 17.5431 11.8287 18.1712C12.4568 18.7993 13.2569 19.2271 14.128 19.4007C14.9992 19.5743 15.9022 19.4859 16.7231 19.1465C17.5439 18.8072 18.2458 18.2322 18.7401 17.4941C19.2343 16.7561 19.4988 15.8881 19.5 14.9999C19.5 13.8064 19.0259 12.6618 18.182 11.8179C17.3381 10.974 16.1935 10.4999 15 10.4999Z" fill="currentColor"/>
<path d="M21.5 9.88135C22.2421 9.88135 22.8437 9.27973 22.8437 8.5376C22.8437 7.79546 22.2421 7.19385 21.5 7.19385C20.7579 7.19385 20.1562 7.79546 20.1562 8.5376C20.1562 9.27973 20.7579 9.88135 21.5 9.88135Z" fill="currentColor"/>
</svg>
