<svg width="30" height="30" viewBox="0 0 30 30" fill="none" xmlns="http://www.w3.org/2000/svg">
<path d="M24.2963 24.9214H5.70251C4.87371 24.9214 4.07886 24.5921 3.49281 24.0061C2.90675 23.42 2.57751 22.6252 2.57751 21.7964V8.20386C2.57751 7.37506 2.90675 6.5802 3.49281 5.99415C4.07886 5.4081 4.87371 5.07886 5.70251 5.07886H24.2963C25.1251 5.07886 25.9199 5.4081 26.506 5.99415C27.092 6.5802 27.4213 7.37506 27.4213 8.20386V21.7964C27.4213 22.6252 27.092 23.42 26.506 24.0061C25.9199 24.5921 25.1251 24.9214 24.2963 24.9214ZM5.70251 6.32886C5.20523 6.32886 4.72832 6.5264 4.37669 6.87803C4.02506 7.22966 3.82751 7.70658 3.82751 8.20386V21.7964C3.82751 22.2936 4.02506 22.7706 4.37669 23.1222C4.72832 23.4738 5.20523 23.6714 5.70251 23.6714H24.2963C24.7935 23.6714 25.2705 23.4738 25.6221 23.1222C25.9737 22.7706 26.1713 22.2936 26.1713 21.7964V8.20386C26.1713 7.70658 25.9737 7.22966 25.6221 6.87803C25.2705 6.5264 24.7935 6.32886 24.2963 6.32886H5.70251Z" fill="#1B2021"/>
<path d="M18.21 13.9361L13.25 10.5399C13.0563 10.4076 12.8302 10.3306 12.596 10.3173C12.3618 10.3039 12.1284 10.3547 11.9209 10.4641C11.7133 10.5735 11.5396 10.7374 11.4183 10.9382C11.297 11.139 11.2328 11.3691 11.2325 11.6036V18.3961C11.2328 18.6307 11.297 18.8608 11.4183 19.0616C11.5396 19.2624 11.7133 19.4263 11.9209 19.5357C12.1284 19.6451 12.3618 19.6959 12.596 19.6825C12.8302 19.6692 13.0563 19.5922 13.25 19.4599L18.215 16.0636C18.388 15.9451 18.5294 15.7861 18.6269 15.6005C18.7245 15.4149 18.7752 15.2083 18.7747 14.9986C18.7742 14.7889 18.7225 14.5825 18.6241 14.3973C18.5257 14.2122 18.3835 14.0539 18.21 13.9361Z" fill="currentColor"/>
</svg>
