<svg width="32" height="32" viewBox="0 0 32 32" fill="none" xmlns="http://www.w3.org/2000/svg">
<path opacity="0.5" d="M16 5C15.7348 5 15.4804 5.10536 15.2929 5.29289C15.1054 5.48043 15 5.73478 15 6V8C15 8.26522 15.1054 8.51957 15.2929 8.70711C15.4804 8.89464 15.7348 9 16 9C16.2652 9 16.5196 8.89464 16.7071 8.70711C16.8946 8.51957 17 8.26522 17 8V6C17 5.73478 16.8946 5.48043 16.7071 5.29289C16.5196 5.10536 16.2652 5 16 5ZM5 16C5 15.7348 5.10536 15.4804 5.29289 15.2929C5.48043 15.1054 5.73478 15 6 15H8C8.26522 15 8.51957 15.1054 8.70711 15.2929C8.89464 15.4804 9 15.7348 9 16C9 16.2652 8.89464 16.5196 8.70711 16.7071C8.51957 16.8946 8.26522 17 8 17H6C5.73478 17 5.48043 16.8946 5.29289 16.7071C5.10536 16.5196 5 16.2652 5 16ZM23 16C23 15.7348 23.1054 15.4804 23.2929 15.2929C23.4804 15.1054 23.7348 15 24 15H26C26.2652 15 26.5196 15.1054 26.7071 15.2929C26.8946 15.4804 27 15.7348 27 16C27 16.2652 26.8946 16.5196 26.7071 16.7071C26.5196 16.8946 26.2652 17 26 17H24C23.7348 17 23.4804 16.8946 23.2929 16.7071C23.1054 16.5196 23 16.2652 23 16ZM16 23C16.2652 23 16.5196 23.1054 16.7071 23.2929C16.8946 23.4804 17 23.7348 17 24V26C17 26.2652 16.8946 26.5196 16.7071 26.7071C16.5196 26.8946 16.2652 27 16 27C15.7348 27 15.4804 26.8946 15.2929 26.7071C15.1054 26.5196 15 26.2652 15 26V24C15 23.7348 15.1054 23.4804 15.2929 23.2929C15.4804 23.1054 15.7348 23 16 23Z" fill="#F59D27"/>
<path d="M6.6 8.01467L7.29333 8.708C7.48202 8.89007 7.73467 8.99075 7.99687 8.98835C8.25906 8.98594 8.50983 8.88066 8.69515 8.69516C8.88047 8.50966 8.98552 8.2588 8.98767 7.9966C8.98983 7.7344 8.88891 7.48185 8.70666 7.29333L8.01466 6.6C9.80879 5.07576 12.0017 4.09684 14.3343 3.7789C16.6669 3.46095 19.0418 3.81725 21.1784 4.80571C23.3151 5.79418 25.1241 7.3735 26.392 9.35713C27.6598 11.3408 28.3335 13.6458 28.3333 16C28.3394 18.9265 27.299 21.7587 25.4 23.9853L24.7067 23.292C24.6144 23.1965 24.504 23.1204 24.382 23.0681C24.2599 23.0157 24.1287 22.9882 23.9959 22.9871C23.8631 22.986 23.7315 23.0114 23.6086 23.0617C23.4857 23.112 23.3741 23.1863 23.2803 23.2803C23.1864 23.3742 23.1122 23.4859 23.062 23.6088C23.0118 23.7317 22.9865 23.8634 22.9878 23.9962C22.989 24.129 23.0166 24.2602 23.0691 24.3822C23.1215 24.5042 23.1978 24.6145 23.2933 24.7067L23.9853 25.4C21.7587 27.299 18.9265 28.3394 16 28.3333C13.6458 28.3335 11.3408 27.6598 9.35713 26.392C7.3735 25.1241 5.79417 23.3151 4.80571 21.1784C3.81725 19.0418 3.46095 16.6669 3.77889 14.3343C4.09684 12.0017 5.07575 9.80879 6.6 8.01467ZM5.86666 5.86533C4.53364 7.19477 3.47639 8.77446 2.75563 10.5137C2.03487 12.2529 1.6648 14.1174 1.66666 16C1.66666 23.916 8.084 30.3333 16 30.3333C17.8821 30.3355 19.7462 29.966 21.4851 29.246C23.2241 28.5259 24.8037 27.4695 26.1333 26.1373L26.1347 26.1347M26.1347 26.1347C27.4672 24.805 28.5253 23.2252 29.2456 21.486C29.9659 19.7468 30.3355 17.8825 30.3333 16C30.3333 8.084 23.916 1.66666 16 1.66666C14.1174 1.66462 12.253 2.03449 10.5138 2.75502C8.77462 3.47555 7.19622 4.53255 5.86666 5.86533" fill="#1B2021"/>
<path d="M10.5893 22.8227L16.0867 20.324C17.1653 19.8347 17.704 19.5893 18.1667 19.244C18.5747 18.9373 18.9387 18.5747 19.244 18.1653C19.5893 17.704 19.8347 17.1653 20.324 16.0867L22.8227 10.5893C23.1867 9.78933 23.3693 9.388 23.2947 9.14533C23.2626 9.04174 23.2058 8.94752 23.1291 8.87085C23.0525 8.79417 22.9583 8.73736 22.8547 8.70533C22.612 8.63066 22.212 8.812 21.4107 9.17733L15.9133 11.676C14.8347 12.1653 14.296 12.4107 13.8333 12.756C13.4253 13.0627 13.0613 13.4253 12.756 13.8347C12.4107 14.296 12.1653 14.8347 11.676 15.9133L9.17733 21.4107C8.81333 22.2107 8.63066 22.612 8.70533 22.8547C8.73736 22.9583 8.79417 23.0525 8.87085 23.1291C8.94752 23.2058 9.04174 23.2626 9.14533 23.2947C9.388 23.3693 9.788 23.188 10.5893 22.8227ZM16 18.6667C15.2928 18.6667 14.6145 18.3857 14.1144 17.8856C13.6143 17.3855 13.3333 16.7072 13.3333 16C13.3333 15.2928 13.6143 14.6145 14.1144 14.1144C14.6145 13.6143 15.2928 13.3333 16 13.3333C16.7072 13.3333 17.3855 13.6143 17.8856 14.1144C18.3857 14.6145 18.6667 15.2928 18.6667 16C18.6667 16.7072 18.3857 17.3855 17.8856 17.8856C17.3855 18.3857 16.7072 18.6667 16 18.6667Z" fill="#1B2021"/>
</svg>
