<svg width="68" height="70" viewBox="0 0 68 70" fill="none" xmlns="http://www.w3.org/2000/svg">
<g clip-path="url(#clip0_39_100)">
<path d="M34.467 59.0215C51.1738 59.0215 64.7174 46.0063 64.7174 29.9511C64.7174 13.8959 51.1738 0.880615 34.467 0.880615C17.7601 0.880615 4.21649 13.8959 4.21649 29.9511C4.21649 46.0063 17.7601 59.0215 34.467 59.0215Z" fill="white"/>
<path d="M34.467 59.9022C17.2913 59.9022 3.31958 46.4644 3.31958 29.9511C3.31958 13.4378 17.2959 0 34.467 0C51.638 0 65.6144 13.4378 65.6144 29.9511C65.6144 46.4644 51.6427 59.9022 34.467 59.9022ZM34.467 1.76586C18.2807 1.76586 5.11343 14.4097 5.11343 29.9511C5.11343 45.4925 18.2853 58.1364 34.4716 58.1364C50.6579 58.1364 63.8298 45.4925 63.8298 29.9511C63.8298 14.4097 50.6579 1.76586 34.467 1.76586Z" fill="#1B2021"/>
<path d="M43.9264 30.882C40.6253 30.882 37.1902 30.7177 33.866 30.2295C19.2239 28.0803 3.81431 30.5945 3.66174 30.6219L3.36584 28.8834C3.52304 28.856 19.2008 26.2917 34.1295 28.4864C41.3096 29.5405 48.7947 29.0614 54.8097 28.6781C60.4918 28.3131 63.5247 28.1625 64.9394 28.9975L64.024 30.5124C63.0161 29.9192 59.0863 30.1702 54.9253 30.4394C51.7537 30.6402 47.9394 30.8866 43.9264 30.8866V30.882Z" fill="#1B2021"/>
<path d="M44.4534 35.3856C41.2448 35.3856 37.9068 35.2669 34.6797 34.911C20.3797 33.3459 5.33537 35.1757 5.18742 35.1985L4.96088 33.4326C5.11345 33.4144 20.3612 31.5573 34.8785 33.1452C41.8967 33.9117 49.2016 33.565 55.0732 33.2866C60.575 33.022 63.5062 32.917 64.8516 33.5056L64.1164 35.1346C63.0993 34.6874 59.2434 34.87 55.1564 35.0662C52.068 35.2122 48.3555 35.3901 44.4488 35.3901L44.4534 35.3856Z" fill="#1B2021"/>
<path d="M43.6582 40.2314C40.6068 40.2314 37.4352 40.1128 34.3606 39.7569C20.7819 38.1964 6.49581 40.0215 6.35249 40.0444L6.1167 38.2922C6.26002 38.2739 20.7634 36.4123 34.5687 38.0047C41.2263 38.7713 48.1659 38.4245 53.7417 38.1416C58.9799 37.877 61.777 37.7675 63.0716 38.3652L62.3133 39.9622C61.3609 39.5242 57.7039 39.7067 53.8341 39.9029C50.8983 40.0489 47.3707 40.2269 43.6582 40.2269V40.2314Z" fill="#1B2021"/>
<path d="M42.8768 44.8309C40.0473 44.8309 37.0977 44.735 34.2497 44.4521C21.628 43.2019 8.34515 44.6666 8.2157 44.6803L8.01227 42.9281C8.14634 42.9144 21.6095 41.4315 34.4254 42.7C40.616 43.3114 47.0656 43.0331 52.2483 42.8095C57.1075 42.5996 59.7011 42.5129 60.894 42.9874L60.2282 44.6255C59.3359 44.2742 55.9331 44.4202 52.3269 44.5753C49.6038 44.694 46.3212 44.8354 42.8722 44.8354L42.8768 44.8309Z" fill="#1B2021"/>
<path d="M41.3604 49.5124C38.91 49.5124 36.3625 49.4166 33.8937 49.1337C23.0335 47.888 11.6138 49.3436 11.5029 49.3618L11.2671 47.6097C11.3827 47.596 23.0196 46.1085 34.1017 47.377C39.4232 47.9884 44.9712 47.7101 49.4327 47.4865C53.6584 47.2766 55.9146 47.1899 56.9872 47.6827L56.2336 49.2843C55.5124 48.9512 52.5997 49.0972 49.5252 49.2523C47.1719 49.371 44.3424 49.5124 41.3604 49.5124Z" fill="#1B2021"/>
<path d="M40.1583 54.2351C38.2304 54.2351 36.2192 54.1392 34.2682 53.8563C25.7982 52.6152 16.8798 54.0662 16.792 54.0845L16.5284 52.5422C16.9029 52.4783 25.7797 51.0319 34.4993 52.3095C38.6465 52.9164 42.9832 52.638 46.4645 52.419C49.9182 52.2 51.6149 52.1179 52.5119 52.6426L51.7028 53.9841C51.1896 53.6829 48.7346 53.8381 46.5662 53.9795C44.7169 54.0982 42.4977 54.2396 40.1537 54.2396L40.1583 54.2351Z" fill="#1B2021"/>
<path d="M1.10499 67.6866C1.11886 67.8965 1.1651 68.0927 1.23907 68.2661C1.31304 68.4395 1.41013 68.5901 1.53496 68.7178C1.65517 68.8456 1.79849 68.9414 1.96493 69.0099C2.13137 69.0783 2.31168 69.1148 2.51049 69.1148C2.68617 69.1148 2.85261 69.0966 3.00981 69.0601C3.167 69.0235 3.31032 68.9688 3.43515 68.8867C3.55536 68.8091 3.65707 68.7041 3.72642 68.5764C3.8004 68.4486 3.83738 68.2935 3.83738 68.1064C3.83738 67.9376 3.78653 67.8007 3.68019 67.6866C3.57385 67.5725 3.43515 67.4767 3.26409 67.39C3.09303 67.3033 2.89885 67.2303 2.67693 67.1619C2.45501 67.0934 2.23309 67.025 2.00654 66.952C1.78 66.879 1.55808 66.7968 1.33616 66.7056C1.11424 66.6143 0.920059 66.5002 0.748996 66.3679C0.577932 66.2356 0.439232 66.0759 0.332895 65.8842C0.226559 65.6972 0.175702 65.469 0.175702 65.2089C0.175702 64.9488 0.231182 64.7024 0.342142 64.4925C0.453102 64.2872 0.605672 64.1138 0.804476 63.9724C1.00328 63.8309 1.24369 63.726 1.51647 63.653C1.79387 63.58 2.09439 63.5435 2.42264 63.5435C2.86186 63.5435 3.2271 63.6073 3.51837 63.726C3.80964 63.8492 4.04543 64.0089 4.22112 64.2051C4.39681 64.4013 4.52626 64.6158 4.60486 64.853C4.68345 65.0903 4.72969 65.323 4.74818 65.5512H3.6432C3.62471 65.3549 3.5831 65.1861 3.51375 65.0401C3.4444 64.8986 3.35656 64.78 3.2456 64.6842C3.13464 64.5884 3.00981 64.5199 2.87111 64.4743C2.73241 64.4287 2.57984 64.4059 2.42264 64.4059C2.27932 64.4059 2.136 64.4195 1.9973 64.4469C1.8586 64.4743 1.73377 64.5199 1.62281 64.5838C1.51185 64.6477 1.424 64.7298 1.35928 64.8302C1.28993 64.9306 1.25756 65.0538 1.25756 65.1998C1.25756 65.3686 1.30842 65.5146 1.41476 65.6287C1.52109 65.7428 1.65979 65.8477 1.83086 65.9299C2.00192 66.0166 2.1961 66.0941 2.41802 66.1626C2.63532 66.231 2.86186 66.304 3.09303 66.377C3.31957 66.4501 3.54611 66.5367 3.76803 66.6234C3.98995 66.7101 4.18413 66.8242 4.3552 66.9565C4.52626 67.0889 4.66496 67.2486 4.7713 67.4311C4.87763 67.6136 4.92849 67.8372 4.92849 68.0927C4.92849 68.4075 4.86839 68.6813 4.74818 68.914C4.62797 69.1467 4.46153 69.343 4.24424 69.4981C4.02694 69.6532 3.77266 69.7719 3.48139 69.8494C3.18549 69.927 2.86648 69.9681 2.51511 69.9681C2.20072 69.9681 1.89558 69.9133 1.59969 69.8084C1.3038 69.7034 1.04027 69.5483 0.804476 69.3521C0.573309 69.1513 0.383752 68.9095 0.235805 68.6266C0.092482 68.3437 0.0138853 68.0243 0.00463867 67.6638H1.10962L1.10499 67.6866Z" fill="#1B2021"/>
<path d="M7.66549 63.6986L9.4501 68.5079L11.2717 63.6986H12.4876V69.8312H11.4058V65.7793L9.93555 69.8312H9.02013L7.52217 65.7656V69.8312H6.44031V63.6986H7.65624H7.66549Z" fill="#1B2021"/>
<path d="M15.7517 63.6986V69.8312H14.6699V63.6986H15.7517Z" fill="#1B2021"/>
<path d="M19.0065 63.6986V68.946H22.0764V69.8358H17.9247V63.7032H19.0065V63.6986Z" fill="#1B2021"/>
<path d="M28.0498 63.6986V64.5747H24.6239V66.231H27.8417V67.1117H24.6239V68.946H28.1977V69.8358H23.542V63.7032H28.0498V63.6986Z" fill="#1B2021"/>
<path d="M37.093 66.8927C37.0607 67.2166 37.0006 67.5224 36.922 67.819C36.8434 68.1155 36.7324 68.3802 36.5937 68.6175C36.6492 68.6768 36.7185 68.7498 36.7925 68.8228C36.8665 68.9004 36.9543 68.9871 37.0514 69.0829C37.1485 69.1787 37.2595 69.2882 37.3843 69.4114C37.5091 69.5346 37.6478 69.6761 37.805 69.8358H36.4781C36.3903 69.7582 36.3255 69.6943 36.2701 69.6441C36.2192 69.5939 36.1776 69.5574 36.1406 69.5209C36.1036 69.4844 36.0805 69.4616 36.0574 69.4388C36.0343 69.416 36.0112 69.3886 35.9834 69.3567C35.7569 69.5483 35.498 69.7034 35.1975 69.8221C34.8969 69.9407 34.5733 70 34.2127 70C33.8243 70 33.4914 69.9498 33.2187 69.8449C32.9459 69.74 32.7286 69.6076 32.5575 69.4388C32.3865 69.2745 32.2663 69.0875 32.1877 68.8821C32.1091 68.6768 32.0721 68.4715 32.0721 68.2661C32.0721 68.0745 32.1137 67.892 32.1923 67.7231C32.2709 67.5543 32.3772 67.3946 32.5067 67.2395C32.6361 67.0843 32.7887 66.9429 32.9598 66.806C33.1308 66.6645 33.3019 66.5322 33.4822 66.3999C33.2741 66.0896 33.117 65.8021 33.0106 65.5466C32.9043 65.2911 32.8488 65.0538 32.8488 64.8394C32.8488 64.6751 32.8858 64.5108 32.9551 64.3511C33.0291 64.1914 33.1308 64.0454 33.2741 63.9176C33.4128 63.7899 33.5839 63.6895 33.7873 63.6119C33.9908 63.5344 34.2219 63.4933 34.4808 63.4933C34.7397 63.4933 34.9894 63.5344 35.1928 63.6165C35.3963 63.6986 35.5673 63.8036 35.706 63.9359C35.8447 64.0682 35.9464 64.2142 36.0158 64.3739C36.0851 64.5336 36.1221 64.6933 36.1221 64.853C36.1221 65.031 36.0851 65.1953 36.0158 65.3458C35.9464 65.501 35.8493 65.647 35.7338 65.7884C35.6182 65.9299 35.4795 66.0668 35.3223 66.1946C35.1651 66.3269 35.0033 66.4546 34.8322 66.5778C34.9987 66.7923 35.1697 67.0022 35.3408 67.203C35.5118 67.4037 35.6875 67.6091 35.8632 67.8098C35.9094 67.6866 35.9464 67.5452 35.9788 67.3855C36.0112 67.2258 36.0343 67.0615 36.0435 66.8927H37.0792H37.093ZM34.2034 69.1057C34.4161 69.1057 34.6149 69.0646 34.8137 68.9779C35.0125 68.8912 35.1836 68.7772 35.3362 68.6357C35.2067 68.4943 35.0819 68.3574 34.9709 68.2342C34.86 68.111 34.749 67.9878 34.6473 67.8691C34.5456 67.7505 34.4439 67.6319 34.3421 67.5132C34.2404 67.3946 34.1433 67.2714 34.0416 67.1391C33.9307 67.2258 33.8197 67.317 33.7087 67.4129C33.6024 67.5087 33.5053 67.6045 33.4175 67.7003C33.3296 67.7961 33.2649 67.892 33.2094 67.9923C33.1586 68.0882 33.1308 68.184 33.1308 68.2798C33.1308 68.4213 33.1632 68.549 33.2233 68.6494C33.2834 68.7544 33.3666 68.841 33.4637 68.9049C33.5654 68.9734 33.681 69.0236 33.8058 69.0555C33.9353 69.0874 34.0647 69.1057 34.1988 69.1057H34.2034ZM33.8891 64.8302C33.8891 64.9397 33.926 65.0812 33.9954 65.25C34.0694 65.4188 34.1711 65.6151 34.3144 65.8432C34.4254 65.7656 34.5271 65.6835 34.6195 65.6014C34.712 65.5192 34.7952 65.4417 34.86 65.3595C34.9247 65.2774 34.9802 65.1953 35.0218 65.1131C35.0588 65.031 35.0772 64.9443 35.0772 64.8576C35.0772 64.7755 35.0634 64.7025 35.031 64.6431C34.9987 64.5793 34.957 64.5291 34.9016 64.488C34.8461 64.4469 34.7814 64.415 34.7074 64.3968C34.6334 64.3785 34.5548 64.3694 34.4762 64.3694C34.3976 64.3694 34.3283 64.3785 34.2543 64.4013C34.1849 64.4196 34.1202 64.4515 34.0647 64.4926C34.0093 64.5336 33.9676 64.5793 33.9353 64.6386C33.9029 64.6979 33.8891 64.7618 33.8891 64.8394V64.8302Z" fill="#1B2021"/>
<path d="M44.8186 65.4553L43.4963 69.8357H42.4607L40.8425 63.7031H41.9706L43.0294 67.7733L44.3285 63.7031H45.3133L46.6032 67.7368L47.6851 63.7031H48.8039L47.1765 69.8357H46.1501L44.8278 65.4553H44.8186Z" fill="#1B2021"/>
<path d="M53.3348 63.6986L55.6696 69.8312H54.5415L53.8526 68.038H51.5548C51.4438 68.3345 51.3329 68.6311 51.2127 68.9369C51.0925 69.2426 50.9815 69.5392 50.8706 69.8358H49.7517L52.0865 63.7032H53.3302L53.3348 63.6986ZM52.706 64.9899L51.8923 67.171H53.5151L52.706 64.9899Z" fill="#1B2021"/>
<path d="M59.3266 68.2479L60.9032 63.6986H62.0451L59.8999 69.8312H58.758L56.585 63.6986H57.7316L59.3313 68.2479H59.3266Z" fill="#1B2021"/>
<path d="M67.8521 63.6986V64.5747H64.4262V66.231H67.644V67.1117H64.4262V68.946H68V69.8358H63.3443V63.7032H67.8521V63.6986Z" fill="#1B2021"/>
<path d="M20.9299 21.8108C22.9087 21.8108 24.5129 20.2705 24.5129 18.3704C24.5129 16.4703 22.9087 14.9299 20.9299 14.9299C18.951 14.9299 17.3468 16.4703 17.3468 18.3704C17.3468 20.2705 18.951 21.8108 20.9299 21.8108Z" fill="#F7B05D"/>
<path d="M20.9298 22.4953C18.5719 22.4953 16.6533 20.6427 16.6533 18.3704C16.6533 16.098 18.5719 14.2455 20.9298 14.2455C23.2877 14.2455 25.2064 16.098 25.2064 18.3704C25.2064 20.6427 23.2877 22.4953 20.9298 22.4953ZM20.9298 15.6098C19.3394 15.6098 18.0403 16.8464 18.0403 18.3658C18.0403 19.8853 19.3348 21.1218 20.9298 21.1218C22.5249 21.1218 23.8194 19.8853 23.8194 18.3658C23.8194 16.8464 22.5249 15.6098 20.9298 15.6098Z" fill="#1B2021"/>
</g>
<defs>
<clipPath id="clip0_39_100">
<rect width="68" height="70" fill="white"/>
</clipPath>
</defs>
</svg>
