<?xml version="1.0" encoding="UTF-8"?>
<svg id="Lager_2" data-name="Lager 2" xmlns="http://www.w3.org/2000/svg" viewBox="0 0 93.94 86.87">
  <defs>
    <style>
      .cls-1 {
        fill: none;
      }

      .cls-1, .cls-2, .cls-3 {
        stroke: #1b2021;
        stroke-miterlimit: 10;
        stroke-width: 1.81px;
      }

      .cls-4 {
        fill: #1b2021;
      }

      .cls-2 {
        fill: #fff;
      }

      .cls-3 {
        fill: #f7b05d;
      }
    </style>
  </defs>
  <g id="Lager_1-2" data-name="Lager 1">
    <g>
      <g>
        <path class="cls-4" d="M.68,55.25c.56.55.84.81,1.41,1.32-.48.81-.72,1.78.07,3.19.66,1.18,1.65,1.73,2.41,1.37.79-.38.75-1.17.54-2.53-.05-.33-.07-.5-.12-.83-.24-1.82.03-3.03,1.54-3.52,1.45-.46,3.01.35,3.89,1.89.7,1.22.75,2.21.14,3.26-.56-.3-.85-.46-1.41-.8.38-.65.42-1.18,0-1.93-.43-.76-1.15-1.09-1.8-.85-.72.27-.82.83-.64,2.05.04.31.06.47.11.78.33,2.05.26,3.34-1.17,4.11-1.56.84-3.5-.17-4.76-2.42-1.26-2.27-1-4.07-.2-5.1Z"/>
        <path class="cls-4" d="M13.43,60.76c.04.05.06.08.1.13-.73,2.73-.98,4.18-1.2,7.19,3.25.14,4.83.04,7.8-.44.05.04.07.06.12.1-2.76,2.96-4.14,4.44-6.9,7.4-.57-.47-.86-.71-1.42-1.2,1.48-1.46,2.22-2.2,3.7-3.66.4-.39,1.07-.97,1.07-.97,0,0-.93.18-1.6.19-1.71.08-2.59.08-4.37-.02-.06-.06-.09-.09-.15-.15.11-1.65.2-2.46.46-4.03.09-.6.37-1.45.37-1.45,0,0-.7.54-1.17.86-1.74,1.16-2.61,1.74-4.36,2.91-.48-.6-.72-.91-1.18-1.54,3.49-2.12,5.23-3.18,8.72-5.31Z"/>
        <path class="cls-4" d="M22.1,69.25c.49.34.74.51,1.23.83-2.39,3.21-3.59,4.81-5.98,8.02-.64-.42-.95-.64-1.57-1.09,2.52-3.11,3.79-4.66,6.31-7.76Z"/>
        <path class="cls-4" d="M25.35,71.3c.52.29.78.44,1.31.71-1.75,2.97-2.62,4.46-4.37,7.43,1.94,1.03,2.93,1.48,4.95,2.29-.22.5-.32.75-.54,1.26-2.79-1.11-4.15-1.77-6.77-3.29,2.17-3.36,3.25-5.03,5.42-8.39Z"/>
        <path class="cls-4" d="M32.27,74.39c2.27.77,3.44,1.07,5.79,1.5-.1.54-.15.81-.26,1.35-1.84-.34-2.76-.56-4.55-1.1-.48,1.48-.73,2.22-1.21,3.69,1.76.54,2.66.76,4.46,1.13-.11.53-.16.79-.27,1.32-1.86-.38-2.78-.61-4.6-1.17-.25.78-.38,1.17-.64,1.94,2.24.69,3.39.97,5.69,1.41-.1.54-.15.81-.25,1.35-3.11-.59-4.66-1-7.66-2.05,1.4-3.75,2.1-5.62,3.51-9.37Z"/>
        <path class="cls-4" d="M49.53,83.37c.21-.63.27-1.38.16-2.25.59-.05.89-.08,1.48-.14.22,1.33.05,2.52-.43,3.47.88.76,1.34,1.14,2.29,1.87-.88.11-1.32.16-2.21.23-.42-.35-.63-.53-1.03-.89-.86.77-2.04,1.21-3.38,1.21-2.67,0-4.19-1.34-4.09-3.03.09-1.56,1.12-2.24,2.73-3.02-.62-.74-.86-1.44-.85-2.16.01-1.24.88-2.2,2.25-2.23,1.33-.03,2.3.81,2.45,2.11.11.99-.43,1.84-1.66,2.53.87.94,1.33,1.4,2.29,2.3ZM45.85,81.74c-1.14.57-1.7,1.15-1.72,2.1-.01,1.01.74,1.66,2.22,1.66.92,0,1.73-.3,2.33-.84-1.21-1.14-1.78-1.72-2.83-2.92ZM47.54,78.62c-.05-.6-.46-.96-1-.94-.55.01-.94.4-.93,1,.01.52.26.9.61,1.3.07.08.1.12.18.19.81-.47,1.19-.95,1.14-1.55Z"/>
        <path class="cls-4" d="M54.93,75.49c.6-.14.89-.21,1.49-.37,1.37,1.93,2.1,2.89,3.66,4.74.42.49.96,1.27.96,1.27,0,0-.07-.92-.07-1.56.05-2.42.01-3.63-.21-6.02.07-.03.1-.04.17-.07,1.84,1.74,2.82,2.58,4.9,4.18.53.41,1.25,1.1,1.25,1.1,0,0-.27-.9-.39-1.51-.49-2.3-.79-3.43-1.48-5.67.51-.28.76-.42,1.25-.72,1.45,4.24,2,6.43,2.7,10.88-.08.04-.13.06-.21.1-2.41-1.68-3.55-2.58-5.68-4.44-.44-.38-.98-1-.98-1,0,0,.12.79.14,1.33.1,2.66.06,4.01-.18,6.71-.09.03-.13.04-.22.07-3.2-3.46-4.63-5.28-7.1-9.02Z"/>
        <path class="cls-4" d="M69.41,68.78c.05-.04.08-.06.14-.1,4.33,2.33,6.69,3.33,11.72,4.88-.61.55-.92.81-1.55,1.33-.67-.26-1.01-.39-1.67-.66-1.73,1.4-2.63,2.04-4.48,3.21.15.63.22.95.36,1.59-.63.39-.95.58-1.59.94-.7-4.62-1.29-6.89-2.92-11.2ZM76.51,73.61c-1.43-.63-2.12-.97-3.49-1.66-.66-.32-1.52-.91-1.52-.91,0,0,.46.89.66,1.53.46,1.35.67,2.03,1.04,3.41,1.36-.89,2.02-1.36,3.31-2.38Z"/>
        <path class="cls-4" d="M72.35,66.56c.49-.43.72-.65,1.2-1.1,2.47.96,3.76,1.39,6.41,2.11.83.21,2.1.7,2.1.7,0,0-.79-.99-1.18-1.71-1.31-2.2-2.03-3.26-3.57-5.29.38-.48.56-.73.92-1.24,3.04,3.77,4.37,5.83,6.58,10.18-.07.07-.1.11-.17.18-5.24-1.09-7.71-1.88-12.3-3.83Z"/>
        <path class="cls-4" d="M79.18,58.65c1.44-2.2,2.1-3.38,3.23-5.92.62.2.94.31,1.56.51-.9,1.99-1.39,2.93-2.48,4.72,1.65.78,2.47,1.17,4.12,1.95,1.07-1.75,1.58-2.67,2.49-4.6.61.21.91.31,1.51.52-.95,1.99-1.47,2.94-2.59,4.76.87.41,1.3.62,2.17,1.03,1.38-2.24,2.02-3.42,3.17-5.92.63.2.94.3,1.56.5-1.55,3.38-2.45,4.96-4.42,7.87-4.13-2.17-6.2-3.25-10.34-5.42Z"/>
      </g>
      <g>
        <ellipse class="cls-2" cx="45.61" cy="34.84" rx="36.27" ry="33.94"/>
        <ellipse class="cls-3" cx="30.17" cy="20.02" rx="4.29" ry="4.02"/>
        <path class="cls-1" d="M9.35,34.34s18.4-2.48,36.12-.38c15.59,1.85,32.83-1.19,36.12.38"/>
        <path class="cls-1" d="M9.92,39.95s18.24-2.23,35.81-.34c15.46,1.66,32.54-1.07,35.81.34"/>
        <path class="cls-1" d="M11.77,45.6s17.23-2.2,33.84-.34c14.61,1.64,30.75-1.05,33.84.34"/>
        <path class="cls-1" d="M14.02,51.02s16.01-1.75,31.44-.27c13.57,1.31,28.57-.84,31.44.27"/>
        <path class="cls-1" d="M17.51,56.53s14.29-1.23,28.06-.19c12.11.91,25.5-.59,28.06.19"/>
        <path class="cls-1" d="M23.99,62.11s11.01-1.23,21.62-.19c9.33.91,19.65-.59,21.62.19"/>
      </g>
    </g>
  </g>
</svg>