<svg width="314" height="295" viewBox="0 0 314 295" fill="none" xmlns="http://www.w3.org/2000/svg">
<g clip-path="url(#clip0_200_924)">
<path d="M156.91 289.78C241.106 289.78 309.36 225.909 309.36 147.12C309.36 68.3311 241.106 4.46002 156.91 4.46002C72.7141 4.46002 4.45996 68.3311 4.45996 147.12C4.45996 225.909 72.7141 289.78 156.91 289.78Z" stroke="white" stroke-width="8.92" stroke-miterlimit="10"/>
<path d="M92.02 101.73C101.978 101.73 110.05 94.1636 110.05 84.83C110.05 75.4964 101.978 67.93 92.02 67.93C82.0623 67.93 73.99 75.4964 73.99 84.83C73.99 94.1636 82.0623 101.73 92.02 101.73Z" fill="#F7B05E" stroke="white" stroke-width="8.92" stroke-miterlimit="10"/>
<path d="M4.5 145.02C4.5 145.02 81.84 134.6 156.32 143.42C221.85 151.2 294.31 138.42 308.14 145.02" stroke="white" stroke-width="8.92" stroke-miterlimit="10"/>
<path d="M6.90002 168.6C6.90002 168.6 83.57 159.23 157.42 167.17C222.4 174.15 294.19 162.67 307.94 168.6" stroke="white" stroke-width="8.92" stroke-miterlimit="10"/>
<path d="M14.6801 192.35C14.6801 192.35 87.1 183.1 156.92 190.92C218.33 197.81 286.17 186.51 299.16 192.35" stroke="white" stroke-width="8.92" stroke-miterlimit="10"/>
<path d="M24.13 215.13C24.13 215.13 91.42 207.77 156.28 214C213.32 219.51 276.37 210.47 288.43 215.13" stroke="white" stroke-width="8.92" stroke-miterlimit="10"/>
<path d="M38.8 238.29C38.8 238.29 98.8601 233.12 156.74 237.49C207.64 241.31 263.92 235.01 274.68 238.29" stroke="white" stroke-width="8.92" stroke-miterlimit="10"/>
<path d="M66.04 261.74C66.04 261.74 112.32 256.57 156.91 260.94C196.13 264.76 239.5 258.46 247.78 261.74" stroke="white" stroke-width="8.92" stroke-miterlimit="10"/>
</g>
<defs>
<clipPath id="clip0_200_924">
<rect width="313.83" height="294.24" fill="white"/>
</clipPath>
</defs>
</svg>
